<?xml version="1.0" standalone="no"?>
<!DOCTYPE svg PUBLIC "-//W3C//DTD SVG 20010904//EN"
 "http://www.w3.org/TR/2001/REC-SVG-20010904/DTD/svg10.dtd">
<svg version="1.0" xmlns="http://www.w3.org/2000/svg"
 width="97.000000pt" height="69.000000pt" viewBox="0 0 97.000000 69.000000"
 preserveAspectRatio="xMidYMid meet">
<metadata>
Created by potrace 1.10, written by Peter Selinger 2001-2011
</metadata>
<g transform="translate(0.000000,69.000000) scale(0.100000,-0.100000)"
fill="#6fa8dc" stroke="none">
<path d="M250 675 c-18 -22 -25 -102 -10 -120 9 -10 9 -15 1 -15 -6 0 -10 -3
-10 -7 4 -27 -3 -35 -26 -31 -14 3 -28 1 -31 -3 -3 -5 -10 -9 -15 -9 -6 0 -7
5 -3 12 5 7 3 8 -7 2 -8 -5 -25 -10 -39 -12 -14 -2 -32 -4 -42 -6 -9 -1 -24
-8 -34 -16 -16 -13 -17 -13 -10 0 4 8 0 6 -8 -4 -10 -12 -16 -39 -16 -71 0
-41 4 -53 22 -65 13 -8 25 -15 28 -15 3 -1 17 -7 32 -15 33 -16 41 -35 23 -50
-8 -6 -12 -17 -9 -25 3 -7 1 -16 -4 -19 -5 -3 -8 -22 -7 -42 3 -36 29 -73 56
-77 8 -2 20 -7 28 -11 10 -6 12 -5 7 2 -4 7 -2 12 3 12 6 0 11 -6 11 -12 0
-10 3 -9 9 1 5 7 14 10 20 7 6 -4 11 -2 11 5 0 7 3 10 6 7 3 -4 21 0 40 8 19
8 40 12 46 8 6 -4 8 -3 4 4 -4 6 1 10 13 9 11 0 18 -4 16 -8 -3 -3 12 -22 33
-40 68 -61 86 -75 77 -59 -6 11 -5 12 3 5 7 -6 30 -9 52 -7 59 6 82 43 82 132
0 57 3 69 16 70 10 1 42 3 72 5 30 2 60 4 65 5 6 1 14 2 18 1 5 -1 6 3 2 9 -4
6 4 10 18 10 32 0 44 16 48 62 3 30 -2 43 -25 67 -16 17 -32 29 -35 29 -15 -4
-51 14 -46 23 4 5 -1 9 -9 9 -13 0 -13 4 0 36 25 59 24 103 -3 135 -26 31 -28
31 -143 7 -30 -6 -61 -16 -67 -21 -13 -9 -63 15 -63 31 0 4 -11 19 -24 35 -21
25 -29 27 -93 27 -51 0 -74 -4 -83 -15z m159 -41 c20 -21 43 -49 51 -62 l15
-22 65 26 c78 32 144 42 165 24 8 -7 15 -26 15 -42 0 -30 -32 -102 -50 -113
-14 -9 -13 -25 3 -25 24 0 134 -58 140 -75 26 -65 -46 -103 -166 -88 l-62 7
76 7 c81 7 134 26 134 48 0 20 -42 48 -105 70 l-55 19 -34 -36 -35 -37 -1
-115 c-1 -63 0 -82 2 -42 l4 72 42 -2 42 -1 -37 -4 -38 -4 0 -73 c0 -92 -20
-124 -77 -124 -31 0 -45 7 -78 42 -22 22 -47 51 -55 64 l-15 22 -65 -26 c-117
-48 -180 -42 -180 17 0 30 32 103 50 114 14 9 13 25 -2 25 -25 0 -135 58 -141
75 -12 31 -7 54 14 66 44 23 86 29 154 22 l70 -7 -87 -7 c-87 -6 -144 -27
-135 -52 6 -19 50 -46 107 -66 l55 -19 35 38 c33 36 35 42 36 106 0 38 -1 57
-3 42 -4 -26 -8 -28 -46 -26 l-42 1 38 4 c40 5 43 11 38 108 -3 60 26 94 80
91 34 -2 48 -9 78 -42z m-193 -242 c-9 -28 -31 -34 -78 -21 -49 13 -40 28 25
45 47 12 62 6 53 -24z m493 -51 c40 -21 31 -30 -33 -33 -25 -2 -46 -6 -46 -10
0 -5 -5 -8 -11 -8 -6 0 -9 7 -5 15 3 8 0 15 -6 15 -6 0 -3 9 7 20 22 24 49 25
94 1z"/>
<path d="M290 641 c-5 -11 -10 -30 -11 -43 -1 -23 -1 -23 -9 2 -14 42 -11 10
10 -112 21 -126 50 -212 99 -300 62 -109 134 -158 161 -109 20 38 12 183 -16
277 -59 204 -191 365 -234 285z m88 -62 c20 -23 37 -46 37 -51 0 -5 8 -15 17
-22 10 -7 15 -15 12 -19 -3 -3 -1 -13 5 -24 26 -47 48 -102 38 -96 -7 4 -6 0
1 -10 8 -9 11 -21 7 -27 -3 -5 -1 -10 5 -10 6 0 9 -4 5 -9 -3 -5 0 -13 6 -16
5 -4 8 -13 5 -21 -3 -7 0 -27 6 -44 5 -17 7 -50 3 -75 -9 -61 -31 -59 -85 5
-23 28 -39 50 -35 50 4 0 -4 19 -17 43 -38 65 -75 186 -83 267 0 9 -4 21 -9
28 -4 7 -2 12 4 12 6 0 9 3 7 8 -7 11 11 52 23 52 5 0 27 -19 48 -41z"/>
<path d="M625 583 c-11 -3 -46 -16 -78 -31 -64 -28 -63 -23 -28 -107 11 -27
23 -59 26 -69 5 -17 12 -13 56 30 62 61 107 147 89 169 -12 15 -28 17 -65 8z
m26 -40 c11 -13 11 -17 2 -20 -7 -3 -13 -10 -13 -17 0 -7 -16 -30 -37 -51
l-36 -37 -16 28 c-23 45 -19 67 14 82 17 7 37 17 45 22 21 13 26 12 41 -7z"/>
<path d="M221 308 c-100 -116 -113 -188 -32 -173 40 7 151 54 151 64 0 3 -12
35 -26 71 -14 36 -29 73 -33 83 -5 14 -16 5 -60 -45z m59 -38 c4 -3 10 -14 14
-26 9 -29 -32 -64 -83 -70 -42 -5 -51 4 -28 28 6 7 13 20 15 28 2 8 18 30 35
48 27 28 33 31 36 15 2 -10 7 -20 11 -23z"/>
</g>
</svg>
